<svg width="24" height="21" viewBox="0 0 24 21" fill="none" xmlns="http://www.w3.org/2000/svg">
<path id="Vector" d="M24 10.1176C23.9917 9.22911 23.6283 8.37961 22.9886 7.75322L15.6343 0.491109C15.3131 0.176557 14.8786 0 14.4257 0C13.9728 0 13.5383 0.176557 13.2171 0.491109C13.0565 0.648111 12.9289 0.834901 12.8419 1.0407C12.7549 1.24651 12.7101 1.46725 12.7101 1.6902C12.7101 1.91315 12.7549 2.1339 12.8419 2.3397C12.9289 2.5455 13.0565 2.73229 13.2171 2.88929L18.8571 8.42876H1.71429C1.25963 8.42876 0.823594 8.6067 0.502103 8.92342C0.180612 9.24014 0 9.66971 0 10.1176C0 10.5655 0.180612 10.9951 0.502103 11.3118C0.823594 11.6286 1.25963 11.8065 1.71429 11.8065H18.8571L13.2171 17.3629C12.8943 17.6786 12.7121 18.1078 12.7105 18.556C12.7089 19.0041 12.888 19.4346 13.2086 19.7526C13.5291 20.0706 13.9647 20.2502 14.4197 20.2517C14.8746 20.2533 15.3115 20.0768 15.6343 19.761L22.9886 12.4989C23.6324 11.8684 23.9962 11.012 24 10.1176Z" fill="white"/>
</svg>
