<svg width="36" height="36" viewBox="0 0 36 36" fill="none" xmlns="http://www.w3.org/2000/svg">
<path d="M28.5 0H7.5C3.3645 0 0 3.3645 0 7.5V28.5C0 32.6355 3.3645 36 7.5 36H28.5C32.6355 36 36 32.6355 36 28.5V7.5C36 3.3645 32.6355 0 28.5 0Z" fill="#6C1DF2"/>
<path d="M12.89 21.9858C12.0111 21.174 11.3407 20.1624 10.9356 19.0366C10.5305 17.9108 10.4025 16.704 10.5625 15.5183C10.7207 14.3161 11.1681 13.1701 11.8663 12.1786C12.5645 11.1871 13.4927 10.3797 14.5714 9.82564C15.6501 9.27155 16.847 8.98726 18.0596 8.99716C19.2722 9.00705 20.4643 9.31083 21.5338 9.88245C22.6032 10.4541 23.5182 11.2765 24.2001 12.2792C24.882 13.282 25.3107 14.4351 25.4493 15.6398C25.5878 16.8445 25.4322 18.0649 24.9958 19.1962C24.5593 20.3276 23.8551 21.3363 22.9433 22.1358C22.3562 22.6406 21.9004 23.2803 21.615 24H18.8333V18.0133C19.3191 17.8416 19.7399 17.524 20.0383 17.1039C20.3366 16.6839 20.4979 16.1819 20.5 15.6667C20.5 15.4457 20.4122 15.2337 20.2559 15.0774C20.0996 14.9211 19.8877 14.8333 19.6667 14.8333C19.4457 14.8333 19.2337 14.9211 19.0774 15.0774C18.9211 15.2337 18.8333 15.4457 18.8333 15.6667C18.8333 15.8877 18.7455 16.0996 18.5893 16.2559C18.433 16.4122 18.221 16.5 18 16.5C17.779 16.5 17.567 16.4122 17.4107 16.2559C17.2545 16.0996 17.1667 15.8877 17.1667 15.6667C17.1667 15.4457 17.0789 15.2337 16.9226 15.0774C16.7663 14.9211 16.5543 14.8333 16.3333 14.8333C16.1123 14.8333 15.9004 14.9211 15.7441 15.0774C15.5878 15.2337 15.5 15.4457 15.5 15.6667C15.5021 16.1819 15.6634 16.6839 15.9617 17.1039C16.2601 17.524 16.6809 17.8416 17.1667 18.0133V24H14.3025C13.9839 23.2338 13.5019 22.5464 12.89 21.9858ZM14.6667 25.6667V25.925C14.6675 26.7403 14.9918 27.5219 15.5683 28.0984C16.1448 28.6749 16.9264 28.9991 17.7417 29H18.2583C19.0736 28.9991 19.8552 28.6749 20.4317 28.0984C21.0082 27.5219 21.3325 26.7403 21.3333 25.925V25.6667H14.6667Z" fill="white"/>
</svg>
