<svg width="16" height="16" viewBox="0 0 16 16" fill="none" xmlns="http://www.w3.org/2000/svg">
<g id="Group">
<g id="Group_2">
<path id="Vector" d="M2.12149 16H13.2859C14.4563 16 15.4074 15.0489 15.4074 13.8785V3.30665C15.4074 2.13628 14.4563 1.18516 13.2859 1.18516H12.4445V0.592582C12.4445 0.266652 12.1778 0 11.8518 0C11.5259 0 11.2592 0.266652 11.2592 0.592582V1.18516H4.14817V0.592582C4.14817 0.266652 3.88147 0 3.55554 0C3.22961 0 2.96296 0.266652 2.96296 0.592582V1.18516H2.12149C0.951119 1.18516 0 2.13628 0 3.30665V13.8785C0 15.0489 0.951119 16 2.12149 16ZM1.18521 3.30665C1.18521 2.79111 1.60595 2.37038 2.12149 2.37038H2.96296V2.96296C2.96296 3.28889 3.22961 3.55554 3.55554 3.55554C3.88147 3.55554 4.14812 3.28889 4.14812 2.96296V2.37038H11.2592V2.96296C11.2592 3.28889 11.5259 3.55554 11.8518 3.55554C12.1778 3.55554 12.4444 3.28889 12.4444 2.96296V2.37038H13.2859C13.8014 2.37038 14.2222 2.79111 14.2222 3.30665V5.03704H1.18521V3.30665ZM1.18521 6.22221H14.2223V13.8785C14.2223 14.3941 13.8015 14.8148 13.286 14.8148H2.12149C1.60595 14.8148 1.18521 14.3941 1.18521 13.8785V6.22221Z" fill="white"/>
</g>
</g>
</svg>
