<svg width="16" height="16" viewBox="0 0 16 16" fill="none" xmlns="http://www.w3.org/2000/svg">
    <g id="location icon" clip-path="url(#clip0_0_68)">
        <path id="Vector"
              d="M8.00001 0.013916C6.22094 0.0160335 4.51535 0.723749 3.25743 1.9818C1.9995 3.23986 1.29195 4.94551 1.29001 6.72458C1.29001 10.2406 6.73401 14.9439 7.35668 15.4692L8.00134 16.0139L8.64601 15.4692C9.26734 14.9439 14.7127 10.2406 14.7127 6.72458C14.7107 4.94505 14.0028 3.23899 12.7443 1.98086C11.4858 0.722732 9.77954 0.0153277 8.00001 0.013916ZM8.00001 13.3759C5.95668 11.5146 3.28868 8.49058 3.28868 6.72458C3.28868 5.47506 3.78505 4.27671 4.66859 3.39317C5.55214 2.50962 6.75049 2.01325 8.00001 2.01325C9.24953 2.01325 10.4479 2.50962 11.3314 3.39317C12.215 4.27671 12.7113 5.47506 12.7113 6.72458C12.7113 8.48725 10.0427 11.5126 8.00001 13.3759Z"
              fill="white"/>
        <path id="Vector_2"
              d="M8.00001 8.66592C9.10348 8.66592 9.99801 7.77139 9.99801 6.66792C9.99801 5.56446 9.10348 4.66992 8.00001 4.66992C6.89655 4.66992 6.00201 5.56446 6.00201 6.66792C6.00201 7.77139 6.89655 8.66592 8.00001 8.66592Z"
              fill="white"/>
    </g>
    <defs>
        <clipPath id="clip0_0_68">
            <rect width="16" height="16" fill="white"/>
        </clipPath>
    </defs>
</svg>
