<svg width="37" height="36" viewBox="0 0 37 36" fill="none" xmlns="http://www.w3.org/2000/svg">
    <g id="question-square 4" clip-path="url(#clip0_0_81)">
        <rect id="Rectangle 96" x="9.9812" y="7" width="23" height="25" fill="white"/>
        <path id="Vector"
              d="M29.4812 0H8.4812C4.3457 0 0.981201 3.3645 0.981201 7.5V28.5C0.981201 32.6355 4.3457 36 8.4812 36H29.4812C33.6167 36 36.9812 32.6355 36.9812 28.5V7.5C36.9812 3.3645 33.6167 0 29.4812 0ZM18.9812 28.5C17.7392 28.5 16.7312 27.492 16.7312 26.25C16.7312 25.008 17.7392 24 18.9812 24C20.2232 24 21.2312 25.008 21.2312 26.25C21.2312 27.492 20.2232 28.5 18.9812 28.5ZM21.8732 18.732C21.0917 19.1625 20.4812 20.16 20.4812 21C20.4812 21.8295 19.8092 22.5 18.9812 22.5C18.1532 22.5 17.4812 21.8295 17.4812 21C17.4812 19.074 18.6917 17.061 20.4257 16.104C21.5702 15.474 22.1612 14.223 21.9317 12.9165C21.7247 11.736 20.7167 10.7295 19.5377 10.5225C18.6287 10.362 17.7452 10.593 17.0537 11.175C16.3712 11.7465 15.9812 12.585 15.9812 13.4745C15.9812 14.3025 15.3092 14.9745 14.4812 14.9745C13.6532 14.9745 12.9812 14.3025 12.9812 13.4745C12.9812 11.697 13.7627 10.0215 15.1247 8.8785C16.4867 7.7355 18.2882 7.263 20.0552 7.569C22.4747 7.992 24.4622 9.978 24.8867 12.399C25.3337 14.9475 24.1232 17.4915 21.8732 18.732Z"
              fill="#6C1DF2"/>
    </g>
    <defs>
        <clipPath id="clip0_0_81">
            <rect width="36" height="36" fill="white" transform="translate(0.981201)"/>
        </clipPath>
    </defs>
</svg>
