<svg width="37" height="36" viewBox="0 0 37 36" fill="none" xmlns="http://www.w3.org/2000/svg">
<path d="M28.6633 0H7.66333C3.52783 0 0.16333 3.3645 0.16333 7.5V28.5C0.16333 32.6355 3.52783 36 7.66333 36H28.6633C32.7988 36 36.1633 32.6355 36.1633 28.5V7.5C36.1633 3.3645 32.7988 0 28.6633 0Z" fill="#6C1DF2"/>
<path d="M21.5325 19.6667H14.7942C13.699 19.668 12.6491 20.1036 11.8747 20.878C11.1003 21.6524 10.6647 22.7023 10.6633 23.7975V28H25.6633V23.7975C25.662 22.7023 25.2264 21.6524 24.452 20.878C23.6776 20.1036 22.6277 19.668 21.5325 19.6667Z" fill="white"/>
<path d="M18.1633 18C20.9248 18 23.1633 15.7614 23.1633 13C23.1633 10.2386 20.9248 8 18.1633 8C15.4019 8 13.1633 10.2386 13.1633 13C13.1633 15.7614 15.4019 18 18.1633 18Z" fill="white"/>
</svg>
